<svg t="1625554265290" class="icon" viewBox="0 0 1024 1024" version="1.1" xmlns="http://www.w3.org/2000/svg" p-id="1975" width="256" height="256"><path d="M102.4 870.4V102.4h716.8v218.112a418.304 418.304 0 0 1 102.4 41.984V102.4a102.4 102.4 0 0 0-102.4-102.4H102.4a102.4 102.4 0 0 0-102.4 102.4v768a102.4 102.4 0 0 0 102.4 102.4h294.912a401.408 401.408 0 0 1-59.904-102.4z" p-id="1976"></path><path d="M716.8 307.2a51.2 51.2 0 0 0-51.2-51.2H256a51.2 51.2 0 0 0 0 102.4h409.6a51.2 51.2 0 0 0 51.2-51.2zM256 460.8a51.2 51.2 0 0 0 0 102.4h102.4a51.2 51.2 0 0 0 0-102.4z" p-id="1977"></path><path d="M716.8 409.6a307.2 307.2 0 1 0 307.2 307.2 307.2 307.2 0 0 0-307.2-307.2z m0 512a204.8 204.8 0 1 1 204.8-204.8 204.8 204.8 0 0 1-204.8 204.8z" p-id="1978"></path><path d="M715.776 563.2l-35.84 111.104H563.2l94.208 68.608-35.84 110.592 94.208-68.608 94.208 68.608-35.84-110.592 94.208-68.608h-116.224L715.776 563.2z" p-id="1979"></path></svg>