<svg t="1614653480020" class="icon" viewBox="0 0 1024 1024" version="1.1" xmlns="http://www.w3.org/2000/svg" p-id="1941" width="200" height="200"><path d="M273.066667 798.72H157.013333c-6.826667 0-13.653333-6.826667-13.653333-13.653333v-213.902223c0-6.826667 6.826667-13.653333 13.653333-13.653333H273.066667c6.826667 0 13.653333 6.826667 13.653333 13.653333v213.902223c0 6.826667-4.551111 13.653333-13.653333 13.653333z m195.697777 0h-118.328888c-6.826667 0-13.653333-6.826667-13.653334-13.653333V288.995556c0-6.826667 6.826667-13.653333 13.653334-13.653334h118.328888c6.826667 0 13.653333 6.826667 13.653334 13.653334v496.071111c0 6.826667-6.826667 13.653333-13.653334 13.653333z m195.697778 0H546.133333c-6.826667 0-13.653333-6.826667-13.653333-13.653333V427.804444c0-6.826667 6.826667-13.653333 13.653333-13.653333h118.328889c6.826667 0 13.653333 6.826667 13.653334 13.653333v357.262223c0 6.826667-6.826667 13.653333-13.653334 13.653333z m195.697778 0h-118.328889c-6.826667 0-13.653333-6.826667-13.653333-13.653333V150.186667c0-6.826667 6.826667-13.653333 13.653333-13.653334h118.328889c6.826667 0 13.653333 6.826667 13.653333 13.653334v634.88c0 6.826667-6.826667 13.653333-13.653333 13.653333z m20.48 100.124444H134.257778c-6.826667 0-13.653333-6.826667-13.653334-13.653333v-27.306667c0-6.826667 6.826667-13.653333 13.653334-13.653333h746.382222c6.826667 0 13.653333 6.826667 13.653333 13.653333V887.466667c0 6.826667-4.551111 11.377778-13.653333 11.377777z m0 0" fill="" p-id="1942"></path></svg>