<svg t="1626328025257" class="icon" viewBox="0 0 1024 1024" version="1.1" xmlns="http://www.w3.org/2000/svg" p-id="1331" width="200" height="200"><path d="M569.75888 948.8h-28.8c-28.8 0-57.6-9.6-81.6-28.8l-14.4-14.4c-14.4-19.2-24-43.2-24-67.2 0-28.8 9.6-67.2 28.8-91.2 19.2-24 52.8-38.4 86.4-38.4l124.8-4.8c33.6 0 62.4 9.6 81.6 24 24 19.2 33.6 52.8 33.6 86.4 0 14.4-9.6 28.8-28.8 28.8-14.4 0-33.6-14.4-33.6-28.8 0-33.6-38.4-48-62.4-48l-115.2 4.8c-14.4 0-28.8 9.6-38.4 19.2-9.6 9.6-14.4 28.8-14.4 43.2 0 28.8 28.8 52.8 57.6 52.8h24c9.6 0 19.2 4.8 24 14.4 4.8 4.8 4.8 14.4 4.8 19.2 4.8 19.2-4.8 28.8-24 28.8z" p-id="1332"></path><path d="M963.35888 905.6c-19.2 24-48 38.4-76.8 38.4h-153.6c-43.2 0-72-9.6-91.2-38.4-9.6-14.4-14.4-38.4-19.2-62.4 0-14.4 14.4-28.8 28.8-28.8s28.8 14.4 33.6 28.8c0 14.4 4.8 38.4 52.8 38.4h134.4c14.4 0 28.8-9.6 38.4-19.2 9.6-9.6 14.4-24 14.4-38.4 0-28.8-19.2-52.8-48-52.8h-38.4c-14.4 0-33.6-14.4-33.6-28.8s14.4-33.6 28.8-33.6h43.2c62.4 0 110.4 43.2 110.4 115.2 4.8 28.8-4.8 62.4-24 81.6z" p-id="1333"></path><path d="M185.75888 300.8a220.8 220.8 0 1 0 441.6 0 220.8 220.8 0 1 0-441.6 0Z" p-id="1334"></path><path d="M334.55888 814.4c0-91.2 72-163.2 163.2-163.2H704.15888l-9.6-9.6c-48-48-129.6-76.8-292.8-76.8-216 0-288 52.8-331.2 129.6-43.2 67.2-38.4 192-38.4 192h316.8c-9.6-24-14.4-48-14.4-72z" p-id="1335"></path></svg>