<svg t="1625554323077" class="icon" viewBox="0 0 1024 1024" version="1.1" xmlns="http://www.w3.org/2000/svg" p-id="2872" width="256" height="256"><path d="M832 128a64 64 0 0 1 64 64v640a64 64 0 0 1-64 64H192a64 64 0 0 1-64-64V192a64 64 0 0 1 64-64h640z m-21.333333 64H213.333333a21.333333 21.333333 0 0 0-21.184 18.837333L192 213.333333v597.333334a21.333333 21.333333 0 0 0 18.837333 21.184L213.333333 832h597.333334a21.333333 21.333333 0 0 0 21.184-18.837333L832 810.666667V213.333333a21.333333 21.333333 0 0 0-21.333333-21.333333z m-72.32 413.866667a32 32 0 0 1 0 45.226666l-31.402667 31.402667 30.528 30.528a32 32 0 0 1-45.248 45.269333l-30.528-30.549333-28.949333 28.949333a32 32 0 0 1-45.248-45.226666l28.949333-28.970667-29.824-29.802667a32 32 0 1 1 45.269333-45.248l29.802667 29.802667 31.402667-31.402667a32 32 0 0 1 45.248 0z m-300.245334-9.301334a32 32 0 0 1 0 45.269334l-105.6 105.6a32 32 0 0 1-45.269333-45.269334l105.6-105.6a32 32 0 0 1 45.269333 0zM362.154667 256a32 32 0 0 1 32 32v44.394667H437.333333a32 32 0 0 1 0 64h-43.178666V437.333333a32 32 0 0 1-64 0v-40.938666H288a32 32 0 1 1 0-64h42.154667V288a32 32 0 0 1 32-32zM736 332.394667a32 32 0 0 1 0 64h-149.333333a32 32 0 1 1 0-64h149.333333z" fill="#000000" p-id="2873"></path></svg>