<svg t="1625554648094" class="icon" viewBox="0 0 1024 1024" version="1.1" xmlns="http://www.w3.org/2000/svg" p-id="9984" width="256" height="256"><path d="M984 754c22.092 0 40-17.908 40-40V168a40.002 40.002 0 0 0-68.286-28.286l-99.81 99.81c-15.49 15.492-40.784 15.574-56.376 0.19L687.66 129.338c-46.786-46.158-122.658-45.908-169.134 0.568l-111.346 111.344-0.344-0.342-36.614 36.706c-10.934 7.786-26.234 6.806-36.032-2.996-46.24-46.236-121.914-46.682-168.68-1.016L80 357.008V40C80 17.908 62.092 0 40 0S0 17.908 0 40v944c0 22.092 17.908 40 40 40h944c22.092 0 40-17.908 40-40v-70c0-22.092-17.908-40-40-40s-40 17.908-40 40v30H80V681.506l112.48-113.098 0.34 0.34 5.682-5.696a39.664 39.664 0 0 1 23.68-7.886h0.104a39.736 39.736 0 0 1 28.218 11.652l125.83 125.272c38.998 38.826 102.386 38.756 141.302-0.156 5.122-5.124 11.164-5.87 14.208-5.868 3.11 0.008 9.084 0.79 14.18 5.934l18.992 19.176c18.904 19.084 44.11 29.608 70.97 29.632h0.098c26.826 0 52.012-10.472 70.93-29.498L944 472.962V714c0 22.092 17.908 40 40 40zM145.178 503.232a122.036 122.036 0 0 0-7.98 7.316L80 568.058v-99.294l141.386-137.908c15.596-15.226 40.822-15.08 56.232 0.334a108.608 108.608 0 0 0 22.148 17.06l-154.588 154.982z m189.008 34.012l-27.242-27.12a120.084 120.084 0 0 0-32.59-23.118l300.74-300.532c15.49-15.494 40.784-15.576 56.376-0.19l27.016 26.656-324.3 324.304z m126.38 97.62l0.5 0.5c-7.79 7.79-20.484 7.806-28.29 0.03l-41.892-41.708L715.44 269.13l27.902 27.53a119.056 119.056 0 0 0 32.604 22.824l-315.38 315.38z m189.72 20.038c-5.108 5.136-11.084 5.906-14.206 5.906h-0.018c-3.116-0.002-9.104-0.778-14.208-5.932l-18.99-19.174a100.914 100.914 0 0 0-16.526-13.47L944 264.568v94.93L650.286 654.902z" p-id="9985"></path></svg>