<svg t="1614653687186" class="icon" viewBox="0 0 1024 1024" version="1.1" xmlns="http://www.w3.org/2000/svg" p-id="5620" width="200" height="200"><path d="M888 960H136c-39.7 0-72-32.3-72-72V379.9c0-24.9 12.6-47.6 33.6-60.9l376-237.3c23.3-14.7 53.5-14.7 76.9 0l376 237.3c21 13.3 33.6 36 33.6 60.9V888c-0.1 39.7-32.4 72-72.1 72zM512 142.6L136 379.9V888h752V379.9L512 142.6z" fill="" p-id="5621"></path><path d="M724 788c0 19.9-16.1 36-36 36H336c-19.9 0-36-16.1-36-36s16.1-36 36-36h352c19.9 0 36 16.1 36 36z" fill="" p-id="5622"></path></svg>