<?xml version="1.0" standalone="no"?><!DOCTYPE svg PUBLIC "-//W3C//DTD SVG 1.1//EN" "http://www.w3.org/Graphics/SVG/1.1/DTD/svg11.dtd"><svg t="1614652382021" class="icon" viewBox="0 0 1024 1024" version="1.1" xmlns="http://www.w3.org/2000/svg" p-id="2199" xmlns:xlink="http://www.w3.org/1999/xlink" width="200" height="200"><defs><style type="text/css"></style></defs><path d="M804.121685 155.143453 665.05642 463.814558l-40.444131 0 148.318-326.919724L543.918455 136.894833l0 763.815189c47.237861 1.746784 288.027949 79.853699 288.027949 79.853699l0 39.343053L184.675558 1019.906775l0-41.835827c0 0 240.983493-77.361949 278.030247-77.361949L462.705805 136.894833 246.183424 136.894833l148.349723 326.919724-40.444131 0L215.024773 155.143453 75.961554 463.814558 35.484677 463.814558l149.189857-330.446038L184.674535 95.253434l2.524496 0 246.38655 0c0-49.826825 33.45495-90.595344 72.411193-90.595344 41.285289 0 72.412217 43.032072 72.412217 90.595344l253.537414 0 0 32.679283 151.682631 335.88184L943.184905 463.814558 804.121685 155.143453zM397.05662 506.556011c0 99.266841-68.852134 189.537797-182.031846 189.537797-110.655216 0-182.063569-90.270956-182.063569-189.537797C32.961204 506.749416 397.05662 506.749416 397.05662 506.556011zM627.136785 506.556011c0 0.193405 364.096439 0.193405 364.096439 0 0 99.266841-68.883857 189.537797-182.063569 189.537797C698.545138 696.092785 627.136785 605.822852 627.136785 506.556011z" p-id="2200"></path></svg>