<svg t="1626333927172" class="icon" viewBox="0 0 1024 1024" version="1.1" xmlns="http://www.w3.org/2000/svg" p-id="1475" width="200" height="200"><path d="M40.96 901.12h276.48V471.04l-76.8-51.2-199.68 163.84V901.12z m337.92 0H655.36V471.04l-133.12 107.52-143.36-71.68V901.12zM716.8 419.84V901.12h276.48V424.96l-117.76-148.48-158.72 143.36z" p-id="1476"></path><path d="M81.92 465.92l148.48-122.88 286.72 168.96 337.92-312.32 5.12-5.12 56.32 56.32L1008.64 0 747.52 81.92l61.44 61.44L512 419.84l-286.72-163.84L35.84 409.6c-15.36 10.24-15.36 35.84-5.12 51.2s35.84 15.36 51.2 5.12zM988.16 952.32H35.84c-20.48 0-35.84 15.36-35.84 35.84S15.36 1024 35.84 1024h952.32c20.48 0 35.84-15.36 35.84-35.84s-15.36-35.84-35.84-35.84z" p-id="1477"></path></svg>